<mxfile modified="2021-12-02T02:04:07.212Z" host="app.diagrams.net" agent="5.0 (Windows NT 10.0; Win64; x64) AppleWebKit/537.36 (KHTML, like Gecko) Chrome/96.0.4664.45 Safari/537.36" etag="6MIGy6R2vF_ldYaOpwpX" version="15.5.9" type="github">
  <diagram id="Ht1M8jgEwFfnCIfOTk4-" name="Page-1">
    <mxGraphModel dx="1422" dy="762" grid="1" gridSize="10" guides="1" tooltips="1" connect="1" arrows="1" fold="1" page="1" pageScale="1" pageWidth="827" pageHeight="827" math="0" shadow="0">
      <root>
        <mxCell id="0" />
        <mxCell id="1" parent="0" />
        <mxCell id="jZVaUwOg5UY3L9NAnvdq-71" value="AWS Cloud" style="points=[[0,0],[0.25,0],[0.5,0],[0.75,0],[1,0],[1,0.25],[1,0.5],[1,0.75],[1,1],[0.75,1],[0.5,1],[0.25,1],[0,1],[0,0.75],[0,0.5],[0,0.25]];outlineConnect=0;gradientColor=none;html=1;whiteSpace=wrap;fontSize=12;fontStyle=0;shape=mxgraph.aws4.group;grIcon=mxgraph.aws4.group_aws_cloud_alt;strokeColor=#232F3E;fillColor=none;verticalAlign=top;align=left;spacingLeft=30;fontColor=#232F3E;dashed=0;labelBackgroundColor=none;" parent="1" vertex="1">
          <mxGeometry x="263" y="125" width="497" height="575" as="geometry" />
        </mxCell>
        <mxCell id="zWHLnJVXO3iX5yV4ErMM-5" value="Index.html" style="fillColor=none;strokeColor=#5A6C86;dashed=1;verticalAlign=top;fontStyle=0;fontColor=#5A6C86;" parent="1" vertex="1">
          <mxGeometry x="349" y="153.5" width="161" height="296.5" as="geometry" />
        </mxCell>
        <mxCell id="jZVaUwOg5UY3L9NAnvdq-158" style="edgeStyle=elbowEdgeStyle;rounded=0;orthogonalLoop=1;jettySize=auto;html=1;endArrow=open;endFill=0;strokeColor=#545B64;strokeWidth=2;fontSize=14;entryX=-0.015;entryY=0.406;entryDx=0;entryDy=0;entryPerimeter=0;" parent="1" target="zWHLnJVXO3iX5yV4ErMM-5" edge="1">
          <mxGeometry relative="1" as="geometry">
            <mxPoint x="240" y="382" as="sourcePoint" />
            <mxPoint x="349" y="290" as="targetPoint" />
            <Array as="points">
              <mxPoint x="310" y="300" />
              <mxPoint x="430" y="312" />
            </Array>
          </mxGeometry>
        </mxCell>
        <mxCell id="-QjtrjUzRDEMRZ5MF8oH-47" value="Serverless - kanban" style="text;html=1;resizable=0;points=[];autosize=1;align=left;verticalAlign=top;spacingTop=-4;fontSize=30;fontStyle=1;labelBackgroundColor=none;" parent="1" vertex="1">
          <mxGeometry x="36.5" y="26.5" width="300" height="40" as="geometry" />
        </mxCell>
        <mxCell id="-QjtrjUzRDEMRZ5MF8oH-48" value="with AWS" style="text;html=1;resizable=0;points=[];autosize=1;align=left;verticalAlign=top;spacingTop=-4;fontSize=16;labelBackgroundColor=none;" parent="1" vertex="1">
          <mxGeometry x="36.5" y="76.5" width="80" height="20" as="geometry" />
        </mxCell>
        <mxCell id="SCVMTBWpLvtzJIhz15lM-1" value="" style="line;strokeWidth=2;html=1;fontSize=14;labelBackgroundColor=none;" parent="1" vertex="1">
          <mxGeometry x="32.5" y="101.5" width="727.5" height="10" as="geometry" />
        </mxCell>
        <mxCell id="jZVaUwOg5UY3L9NAnvdq-59" value="Actors" style="swimlane;fontSize=14;align=center;swimlaneFillColor=#f4f4f4;fillColor=#f4f4f4;collapsible=0;startSize=33;" parent="1" vertex="1">
          <mxGeometry x="30" y="125" width="210" height="177" as="geometry" />
        </mxCell>
        <mxCell id="jZVaUwOg5UY3L9NAnvdq-60" value="User" style="outlineConnect=0;fontColor=#232F3E;gradientColor=none;fillColor=#232F3E;strokeColor=none;dashed=0;verticalLabelPosition=bottom;verticalAlign=top;align=center;html=1;fontSize=12;fontStyle=0;aspect=fixed;pointerEvents=1;shape=mxgraph.aws4.user;labelBackgroundColor=none;" parent="jZVaUwOg5UY3L9NAnvdq-59" vertex="1">
          <mxGeometry x="16" y="54" width="78" height="78" as="geometry" />
        </mxCell>
        <mxCell id="jZVaUwOg5UY3L9NAnvdq-61" value="Payers" style="outlineConnect=0;fontColor=#232F3E;gradientColor=none;fillColor=#232F3E;strokeColor=none;dashed=0;verticalLabelPosition=bottom;verticalAlign=top;align=center;html=1;fontSize=12;fontStyle=0;aspect=fixed;pointerEvents=1;shape=mxgraph.aws4.corporate_data_center;labelBackgroundColor=none;" parent="jZVaUwOg5UY3L9NAnvdq-59" vertex="1">
          <mxGeometry x="130" y="54" width="53" height="78" as="geometry" />
        </mxCell>
        <mxCell id="jZVaUwOg5UY3L9NAnvdq-62" value="Channels" style="swimlane;fontSize=14;align=center;swimlaneFillColor=#f4f4f4;fillColor=#f4f4f4;collapsible=0;startSize=33;" parent="1" vertex="1">
          <mxGeometry x="30" y="302" width="210" height="398" as="geometry" />
        </mxCell>
        <mxCell id="jZVaUwOg5UY3L9NAnvdq-65" value="Mobile / Web" style="outlineConnect=0;fontColor=#232F3E;gradientColor=none;strokeColor=none;fillColor=#277116;dashed=0;verticalLabelPosition=bottom;verticalAlign=top;align=center;html=1;fontSize=12;fontStyle=0;shape=mxgraph.aws4.mobile_client;labelBackgroundColor=none;" parent="jZVaUwOg5UY3L9NAnvdq-62" vertex="1">
          <mxGeometry x="80" y="68" width="53" height="100" as="geometry" />
        </mxCell>
        <mxCell id="jZVaUwOg5UY3L9NAnvdq-95" value="API" style="outlineConnect=0;fontColor=#232F3E;gradientColor=none;fillColor=#277116;strokeColor=none;dashed=0;verticalLabelPosition=bottom;verticalAlign=top;align=center;html=1;fontSize=12;fontStyle=0;aspect=fixed;pointerEvents=1;shape=mxgraph.aws4.external_sdk;labelBackgroundColor=none;" parent="jZVaUwOg5UY3L9NAnvdq-62" vertex="1">
          <mxGeometry x="72.5" y="258" width="68" height="78" as="geometry" />
        </mxCell>
        <mxCell id="jZVaUwOg5UY3L9NAnvdq-73" value="Amazon S3" style="outlineConnect=0;fontColor=#232F3E;gradientColor=#60A337;gradientDirection=north;fillColor=#277116;strokeColor=#ffffff;dashed=0;verticalLabelPosition=bottom;verticalAlign=top;align=center;html=1;fontSize=12;fontStyle=0;aspect=fixed;shape=mxgraph.aws4.resourceIcon;resIcon=mxgraph.aws4.s3;labelBackgroundColor=none;" parent="1" vertex="1">
          <mxGeometry x="390" y="190.5" width="78" height="78" as="geometry" />
        </mxCell>
        <mxCell id="zWHLnJVXO3iX5yV4ErMM-8" value="" style="edgeStyle=orthogonalEdgeStyle;rounded=0;orthogonalLoop=1;jettySize=auto;html=1;" parent="1" source="jZVaUwOg5UY3L9NAnvdq-78" target="jZVaUwOg5UY3L9NAnvdq-81" edge="1">
          <mxGeometry relative="1" as="geometry" />
        </mxCell>
        <mxCell id="jZVaUwOg5UY3L9NAnvdq-78" value="Subscriber&lt;br&gt;Processor&lt;br&gt;" style="outlineConnect=0;fontColor=#232F3E;gradientColor=none;fillColor=#D05C17;strokeColor=none;dashed=0;verticalLabelPosition=bottom;verticalAlign=top;align=center;html=1;fontSize=12;fontStyle=0;aspect=fixed;pointerEvents=1;shape=mxgraph.aws4.lambda_function;labelBackgroundColor=none;" parent="1" vertex="1">
          <mxGeometry x="491" y="553" width="78" height="78" as="geometry" />
        </mxCell>
        <mxCell id="jZVaUwOg5UY3L9NAnvdq-81" value="Amazon&lt;br&gt;DynamoDB&lt;br&gt;" style="outlineConnect=0;fontColor=#232F3E;gradientColor=#4D72F3;gradientDirection=north;fillColor=#3334B9;strokeColor=#ffffff;dashed=0;verticalLabelPosition=bottom;verticalAlign=top;align=center;html=1;fontSize=12;fontStyle=0;aspect=fixed;shape=mxgraph.aws4.resourceIcon;resIcon=mxgraph.aws4.dynamodb;labelBackgroundColor=#ffffff;" parent="1" vertex="1">
          <mxGeometry x="620.0000000000003" y="553" width="78" height="78" as="geometry" />
        </mxCell>
        <mxCell id="jZVaUwOg5UY3L9NAnvdq-102" value="2" style="rounded=1;whiteSpace=wrap;html=1;fillColor=#007CBD;strokeColor=none;fontColor=#FFFFFF;fontStyle=1;fontSize=22;labelBackgroundColor=none;" parent="1" vertex="1">
          <mxGeometry x="368" y="507.5" width="40" height="38" as="geometry" />
        </mxCell>
        <mxCell id="jZVaUwOg5UY3L9NAnvdq-103" value="3" style="rounded=1;whiteSpace=wrap;html=1;fillColor=#007CBD;strokeColor=none;fontColor=#FFFFFF;fontStyle=1;fontSize=22;labelBackgroundColor=none;" parent="1" vertex="1">
          <mxGeometry x="510" y="507.5" width="40" height="38" as="geometry" />
        </mxCell>
        <mxCell id="jZVaUwOg5UY3L9NAnvdq-167" value="" style="group" parent="1" vertex="1" connectable="0">
          <mxGeometry x="253.00000000000006" y="579" width="21" height="26" as="geometry" />
        </mxCell>
        <mxCell id="jZVaUwOg5UY3L9NAnvdq-168" value="" style="rounded=0;whiteSpace=wrap;html=1;labelBackgroundColor=#ffffff;fontSize=14;align=center;strokeColor=none;" parent="jZVaUwOg5UY3L9NAnvdq-167" vertex="1">
          <mxGeometry width="21" height="26" as="geometry" />
        </mxCell>
        <mxCell id="jZVaUwOg5UY3L9NAnvdq-169" value="" style="outlineConnect=0;fontColor=#232F3E;gradientColor=none;fillColor=#B3B3B3;strokeColor=none;dashed=0;verticalLabelPosition=bottom;verticalAlign=top;align=center;html=1;fontSize=12;fontStyle=0;aspect=fixed;pointerEvents=1;shape=mxgraph.aws4.encrypted_data;labelBackgroundColor=#ffffff;" parent="jZVaUwOg5UY3L9NAnvdq-167" vertex="1">
          <mxGeometry width="21" height="26" as="geometry" />
        </mxCell>
        <mxCell id="zWHLnJVXO3iX5yV4ErMM-7" value="" style="edgeStyle=orthogonalEdgeStyle;rounded=0;orthogonalLoop=1;jettySize=auto;html=1;" parent="1" source="zWHLnJVXO3iX5yV4ErMM-1" target="jZVaUwOg5UY3L9NAnvdq-78" edge="1">
          <mxGeometry relative="1" as="geometry" />
        </mxCell>
        <mxCell id="zWHLnJVXO3iX5yV4ErMM-1" value="Amazon API&lt;br&gt;Gateway&lt;br&gt;" style="outlineConnect=0;fontColor=#232F3E;gradientColor=#945DF2;gradientDirection=north;fillColor=#5A30B5;strokeColor=#ffffff;dashed=0;verticalLabelPosition=bottom;verticalAlign=top;align=center;html=1;fontSize=12;fontStyle=0;aspect=fixed;shape=mxgraph.aws4.resourceIcon;resIcon=mxgraph.aws4.api_gateway;labelBackgroundColor=none;" parent="1" vertex="1">
          <mxGeometry x="349" y="553" width="78" height="78" as="geometry" />
        </mxCell>
        <mxCell id="zWHLnJVXO3iX5yV4ErMM-3" value="" style="edgeStyle=orthogonalEdgeStyle;rounded=0;orthogonalLoop=1;jettySize=auto;html=1;" parent="1" source="jZVaUwOg5UY3L9NAnvdq-169" target="zWHLnJVXO3iX5yV4ErMM-1" edge="1">
          <mxGeometry relative="1" as="geometry" />
        </mxCell>
        <mxCell id="jZVaUwOg5UY3L9NAnvdq-101" value="1" style="rounded=1;whiteSpace=wrap;html=1;fillColor=#007CBD;strokeColor=none;fontColor=#FFFFFF;fontStyle=1;fontSize=22;labelBackgroundColor=none;" parent="1" vertex="1">
          <mxGeometry x="300" y="225.5" width="40" height="38" as="geometry" />
        </mxCell>
        <mxCell id="zWHLnJVXO3iX5yV4ErMM-4" value="Amazon Cloudfront" style="outlineConnect=0;dashed=0;verticalLabelPosition=bottom;verticalAlign=top;align=center;html=1;shape=mxgraph.aws3.cloudfront;fillColor=#F58536;gradientColor=none;" parent="1" vertex="1">
          <mxGeometry x="390" y="314" width="76.5" height="93" as="geometry" />
        </mxCell>
        <mxCell id="zWHLnJVXO3iX5yV4ErMM-9" value="4" style="rounded=1;whiteSpace=wrap;html=1;fillColor=#007CBD;strokeColor=none;fontColor=#FFFFFF;fontStyle=1;fontSize=22;labelBackgroundColor=none;" parent="1" vertex="1">
          <mxGeometry x="639" y="507.5" width="40" height="38" as="geometry" />
        </mxCell>
      </root>
    </mxGraphModel>
  </diagram>
</mxfile>
